<mxfile host="65bd71144e">
    <diagram id="QePf-TiQwWkZ7W3LNWvB" name="Page-1">
        <mxGraphModel dx="1112" dy="1006" grid="1" gridSize="10" guides="1" tooltips="1" connect="1" arrows="1" fold="1" page="1" pageScale="1" pageWidth="850" pageHeight="1100" math="0" shadow="0">
            <root>
                <mxCell id="0"/>
                <mxCell id="1" parent="0"/>
                <mxCell id="2" value="" style="rounded=1;whiteSpace=wrap;html=1;arcSize=5;strokeWidth=2;strokeColor=#B3FF66;" vertex="1" parent="1">
                    <mxGeometry x="40" y="40" width="390" height="380" as="geometry"/>
                </mxCell>
                <mxCell id="3" value="" style="endArrow=none;html=1;entryX=1;entryY=1;entryDx=0;entryDy=0;strokeColor=#B3FF66;" edge="1" parent="1" target="10">
                    <mxGeometry width="50" height="50" relative="1" as="geometry">
                        <mxPoint x="40" y="76" as="sourcePoint"/>
                        <mxPoint x="370" y="150" as="targetPoint"/>
                    </mxGeometry>
                </mxCell>
                <mxCell id="4" value="" style="rounded=0;whiteSpace=wrap;html=1;fillColor=#e1d5e7;strokeColor=#9673a6;" vertex="1" parent="1">
                    <mxGeometry x="50" y="50" width="20" height="20" as="geometry"/>
                </mxCell>
                <mxCell id="5" value="My super form" style="text;html=1;strokeColor=none;fillColor=none;align=center;verticalAlign=middle;whiteSpace=wrap;rounded=0;fontStyle=1;fontSize=18;fontColor=#000099;" vertex="1" parent="1">
                    <mxGeometry x="70" y="45" width="330" height="30" as="geometry"/>
                </mxCell>
                <mxCell id="6" value="No" style="rounded=1;whiteSpace=wrap;html=1;fontSize=16;fillColor=#f5f5f5;fontColor=#333333;strokeColor=#666666;" vertex="1" parent="1">
                    <mxGeometry x="300" y="370" width="100" height="30" as="geometry"/>
                </mxCell>
                <mxCell id="7" value="Yes" style="rounded=1;whiteSpace=wrap;html=1;fontSize=16;fillColor=#d5e8d4;strokeColor=#82b366;" vertex="1" parent="1">
                    <mxGeometry x="190" y="370" width="100" height="30" as="geometry"/>
                </mxCell>
                <mxCell id="8" value="" style="ellipse;whiteSpace=wrap;html=1;aspect=fixed;rounded=1;fontSize=16;fillColor=#f8cecc;strokeColor=#b85450;" vertex="1" parent="1">
                    <mxGeometry x="55" y="90" width="80" height="80" as="geometry"/>
                </mxCell>
                <mxCell id="9" value="Lorem ipsum..." style="text;html=1;strokeColor=none;fillColor=none;align=left;verticalAlign=middle;whiteSpace=wrap;rounded=0;fontSize=18;fontStyle=3" vertex="1" parent="1">
                    <mxGeometry x="150" y="90" width="220" height="30" as="geometry"/>
                </mxCell>
                <mxCell id="10" value="X" style="text;html=1;strokeColor=none;fillColor=none;align=center;verticalAlign=middle;whiteSpace=wrap;rounded=0;fontSize=16;fontStyle=1" vertex="1" parent="1">
                    <mxGeometry x="400" y="45" width="30" height="30" as="geometry"/>
                </mxCell>
                <mxCell id="11" value="The quick brown fox jumps over lazy dog" style="text;html=1;strokeColor=none;fillColor=none;align=left;verticalAlign=middle;whiteSpace=wrap;rounded=0;fontSize=18;fontColor=#999999;" vertex="1" parent="1">
                    <mxGeometry x="150" y="130" width="240" height="40" as="geometry"/>
                </mxCell>
                <mxCell id="12" value="&amp;nbsp;John Smith" style="rounded=1;whiteSpace=wrap;html=1;strokeWidth=1;fontSize=18;align=left;" vertex="1" parent="1">
                    <mxGeometry x="215" y="190" width="195" height="30" as="geometry"/>
                </mxCell>
                <mxCell id="13" value="Your name:" style="text;html=1;strokeColor=none;fillColor=none;align=right;verticalAlign=middle;whiteSpace=wrap;rounded=0;strokeWidth=1;fontSize=18;fontColor=#000099;" vertex="1" parent="1">
                    <mxGeometry x="55" y="190" width="150" height="30" as="geometry"/>
                </mxCell>
                <mxCell id="14" value="&amp;nbsp;2b || !2b ?!" style="rounded=1;whiteSpace=wrap;html=1;strokeWidth=1;fontSize=18;align=left;" vertex="1" parent="1">
                    <mxGeometry x="215" y="235" width="195" height="30" as="geometry"/>
                </mxCell>
                <mxCell id="15" value="Your question:" style="text;html=1;strokeColor=none;fillColor=none;align=right;verticalAlign=middle;whiteSpace=wrap;rounded=0;strokeWidth=1;fontSize=18;fontColor=#000099;" vertex="1" parent="1">
                    <mxGeometry x="65" y="235" width="140" height="30" as="geometry"/>
                </mxCell>
                <mxCell id="16" value="The answer:" style="text;html=1;strokeColor=none;fillColor=none;align=right;verticalAlign=middle;whiteSpace=wrap;rounded=0;strokeWidth=1;fontSize=18;fontColor=#000099;" vertex="1" parent="1">
                    <mxGeometry x="55" y="275" width="150" height="30" as="geometry"/>
                </mxCell>
                <mxCell id="17" value="&amp;nbsp;42" style="rounded=1;whiteSpace=wrap;html=1;strokeWidth=1;fontSize=18;fillColor=#f5f5f5;fontColor=#333333;strokeColor=#666666;align=left;" vertex="1" parent="1">
                    <mxGeometry x="215" y="275" width="195" height="30" as="geometry"/>
                </mxCell>
                <mxCell id="18" value="Are you agree?" style="text;html=1;strokeColor=none;fillColor=none;align=center;verticalAlign=middle;whiteSpace=wrap;rounded=0;strokeWidth=1;fontSize=20;fontColor=#000000;fontStyle=2" vertex="1" parent="1">
                    <mxGeometry x="55" y="330" width="360" height="30" as="geometry"/>
                </mxCell>
                <mxCell id="19" value="" style="endArrow=none;html=1;strokeColor=#B3FF66;fontSize=20;fontColor=#000000;exitX=0;exitY=0.75;exitDx=0;exitDy=0;entryX=1;entryY=0.75;entryDx=0;entryDy=0;" edge="1" parent="1" source="2" target="2">
                    <mxGeometry width="50" height="50" relative="1" as="geometry">
                        <mxPoint x="10" y="340" as="sourcePoint"/>
                        <mxPoint x="510" y="300" as="targetPoint"/>
                        <Array as="points"/>
                    </mxGeometry>
                </mxCell>
            </root>
        </mxGraphModel>
    </diagram>
</mxfile>